# Blender 4.2.0
# www.blender.org
mtllib Cat.mtl
o Sphere.001
v -0.000000 0.032238 -0.260295
v 0.057403 0.412995 -0.099424
v 0.106066 0.356069 -0.183712
v 0.138582 0.270872 -0.240031
v 0.150000 0.170375 -0.259808
v 0.143777 0.079992 -0.249029
v 0.130147 0.032238 -0.225422
v 0.098133 0.000001 -0.169972
v 0.099424 0.412995 -0.057403
v 0.183712 0.356069 -0.106066
v 0.240031 0.270872 -0.138582
v 0.259808 0.170375 -0.150000
v 0.249029 0.079992 -0.143777
v 0.225422 0.032238 -0.130147
v 0.169972 0.000001 -0.098133
v 0.114805 0.412995 0.000000
v 0.212132 0.356069 0.000000
v 0.277164 0.270872 0.000000
v 0.300000 0.170375 0.000000
v 0.287554 0.079992 0.000000
v 0.260295 0.032238 0.000000
v 0.196266 0.000001 0.000000
v 0.000000 0.437675 0.000000
v -0.114805 0.412995 0.000000
v -0.212132 0.356069 0.000000
v -0.277164 0.270872 0.000000
v -0.300000 0.170375 0.000000
v -0.287554 0.079992 0.000000
v -0.260295 0.032238 0.000000
v -0.196266 0.000001 0.000000
v -0.099424 0.412995 -0.057403
v -0.183712 0.356069 -0.106066
v -0.240031 0.270872 -0.138582
v -0.259808 0.170375 -0.150000
v -0.249029 0.079992 -0.143777
v -0.225422 0.032238 -0.130147
v -0.169972 0.000001 -0.098133
v -0.057403 0.412995 -0.099424
v -0.106066 0.356069 -0.183712
v -0.138582 0.270872 -0.240031
v -0.150000 0.170375 -0.259808
v -0.143777 0.079992 -0.249029
v -0.130147 0.032238 -0.225422
v -0.098133 0.000001 -0.169972
v -0.000000 0.000001 0.000000
v 0.001909 0.418588 -0.095980
v -0.076935 0.362879 -0.211891
v 0.009197 0.248042 -0.289364
v 0.000000 0.170375 -0.300000
v -0.000000 0.079992 -0.287554
v -0.000000 0.000001 -0.196266
v -0.010290 0.501500 -0.201004
v -0.010372 0.511545 -0.291517
v -0.014034 0.348133 -0.317391
v 0.018014 0.406825 -0.099745
v -0.016596 0.349194 -0.213581
v 0.025303 0.249796 -0.276419
v -0.002142 0.496174 -0.209126
v -0.003408 0.502255 -0.289185
v -0.003722 0.353310 -0.310898
v 0.243273 0.169799 -0.153426
v 0.242344 0.164038 -0.155115
v 0.130517 0.189074 -0.468892
v 0.129687 0.174361 -0.468925
v 0.247228 0.192490 -0.127020
v 0.240278 0.188384 -0.144280
v 0.129807 0.251586 -0.442957
v 0.128865 0.242118 -0.447964
v 0.239393 0.151027 -0.149394
v 0.229545 0.142645 -0.162635
v 0.125985 0.114981 -0.459426
v 0.125897 0.104913 -0.455209
v -0.000000 0.032238 0.260295
v 0.057403 0.412995 0.099424
v 0.106066 0.356069 0.183712
v 0.138582 0.270872 0.240031
v 0.150000 0.170375 0.259808
v 0.143777 0.079992 0.249029
v 0.130147 0.032238 0.225422
v 0.098133 0.000001 0.169972
v 0.099424 0.412995 0.057403
v 0.183712 0.356069 0.106066
v 0.240031 0.270872 0.138582
v 0.259808 0.170375 0.150000
v 0.249029 0.079992 0.143777
v 0.225422 0.032238 0.130147
v 0.169972 0.000001 0.098133
v -0.099424 0.412995 0.057403
v -0.183712 0.356069 0.106066
v -0.240031 0.270872 0.138582
v -0.259808 0.170375 0.150000
v -0.249029 0.079992 0.143777
v -0.225422 0.032238 0.130147
v -0.169972 0.000001 0.098133
v -0.057403 0.412995 0.099424
v -0.106066 0.356069 0.183712
v -0.138582 0.270872 0.240031
v -0.150000 0.170375 0.259808
v -0.143777 0.079992 0.249029
v -0.130147 0.032238 0.225422
v -0.098133 0.000001 0.169972
v 0.001909 0.418588 0.095980
v -0.076935 0.362879 0.211891
v 0.009197 0.248042 0.289364
v 0.000000 0.170375 0.300000
v -0.000000 0.079992 0.287554
v -0.000000 0.000001 0.196266
v -0.010290 0.501500 0.201004
v -0.010372 0.511545 0.291517
v -0.014034 0.348133 0.317391
v 0.018014 0.406825 0.099745
v -0.016596 0.349194 0.213581
v 0.025303 0.249796 0.276419
v -0.002142 0.496174 0.209126
v -0.003408 0.502255 0.289185
v -0.003722 0.353310 0.310898
v 0.243273 0.169799 0.153426
v 0.242344 0.164038 0.155115
v 0.130517 0.189074 0.468892
v 0.129687 0.174361 0.468925
v 0.247228 0.192490 0.127020
v 0.240278 0.188384 0.144280
v 0.129807 0.251586 0.442957
v 0.128865 0.242118 0.447964
v 0.239393 0.151027 0.149394
v 0.229545 0.142645 0.162635
v 0.125985 0.114981 0.459426
v 0.125897 0.104913 0.455209
v 0.238303 0.170321 -0.153426
v 0.237373 0.164560 -0.155115
v 0.125894 0.195764 -0.468877
v 0.124368 0.168714 -0.468939
v 0.242258 0.193012 -0.127020
v 0.235307 0.188906 -0.144280
v 0.125231 0.256077 -0.440858
v 0.123500 0.238671 -0.450063
v 0.234491 0.151541 -0.149394
v 0.224642 0.143160 -0.162635
v 0.121120 0.119717 -0.461193
v 0.120957 0.101207 -0.453441
v 0.238303 0.170321 0.153426
v 0.237373 0.164560 0.155115
v 0.125894 0.195764 0.468877
v 0.124368 0.168714 0.468939
v 0.242258 0.193012 0.127020
v 0.235307 0.188906 0.144280
v 0.125231 0.256077 0.440858
v 0.123500 0.238671 0.450063
v 0.234491 0.151541 0.149394
v 0.224642 0.143160 0.162635
v 0.121120 0.119717 0.461193
v 0.120957 0.101207 0.453441
v -0.262914 0.164933 -0.043089
v -0.254308 0.195685 -0.026951
v -0.254952 0.204806 0.007405
v -0.261667 0.184494 0.035086
v -0.270239 0.150072 0.034714
v -0.275260 0.127647 0.007492
v -0.272623 0.134213 -0.027523
v -0.288400 0.230297 0.004435
v -0.315171 0.214158 -0.010725
v -0.282170 0.236013 0.038107
v -0.300674 0.225585 0.065974
v -0.330858 0.207272 0.066389
v -0.349741 0.195481 0.039007
v -0.342803 0.198737 0.004564
v -0.286706 0.321720 0.005390
v -0.327317 0.314500 -0.015050
v -0.276549 0.318495 0.050247
v -0.304494 0.307381 0.085194
v -0.349306 0.296995 0.084323
v -0.377473 0.294967 0.048128
v -0.367587 0.302628 0.003885
v -0.251956 0.421833 -0.023936
v -0.305794 0.420231 -0.044719
v -0.234764 0.429055 0.030852
v -0.267267 0.436626 0.078039
v -0.324807 0.438743 0.082075
v -0.363953 0.433632 0.040116
v -0.355442 0.425354 -0.016156
v -0.269868 0.552104 -0.067879
v -0.316693 0.519951 -0.078377
v -0.257155 0.582887 -0.020666
v -0.288272 0.589138 0.027594
v -0.339619 0.566006 0.040538
v -0.372468 0.530883 0.008578
v -0.362257 0.510406 -0.044334
v -0.351876 0.647099 -0.098080
v -0.374002 0.615577 -0.100165
v -0.345576 0.669972 -0.067664
v -0.359883 0.666828 -0.031970
v -0.383853 0.640139 -0.018037
v -0.399401 0.610147 -0.036093
v -0.395078 0.599246 -0.072529
v -0.419187 0.674900 -0.101417
v -0.433857 0.655273 -0.102768
v -0.414996 0.689512 -0.081895
v -0.424596 0.687688 -0.059247
v -0.440457 0.671175 -0.050797
v -0.450680 0.652537 -0.062436
v -0.447772 0.645487 -0.085419
v -0.455030 0.682971 -0.077751
vn -0.0000 -0.3128 -0.9498
vn -0.0056 0.0250 -0.9997
vn 0.5068 0.0290 -0.8616
vn 0.4749 -0.3128 -0.8226
vn 0.0274 0.3608 -0.9322
vn 0.1337 0.7392 -0.6601
vn 0.3201 0.7383 -0.5937
vn 0.4523 0.4184 -0.7876
vn -0.0006 0.9461 -0.3239
vn -0.0001 1.0000 -0.0000
vn 0.1885 0.9192 -0.3457
vn -0.0000 -1.0000 -0.0000
vn -0.0000 -0.9637 -0.2669
vn 0.1334 -0.9637 -0.2311
vn -0.0000 -0.7022 -0.7120
vn 0.3560 -0.7022 -0.6166
vn 0.2311 -0.9637 -0.1334
vn 0.8226 -0.3128 -0.4749
vn 0.6166 -0.7022 -0.3560
vn 0.7895 0.4109 -0.4558
vn 0.8653 0.0421 -0.4996
vn 0.3330 0.9231 -0.1923
vn 0.5886 0.7335 -0.3398
vn 0.3845 0.9231 -0.0000
vn 0.6797 0.7335 -0.0000
vn 0.7120 -0.7022 -0.0000
vn 0.2669 -0.9637 -0.0000
vn 0.9991 0.0421 -0.0000
vn 0.9498 -0.3128 -0.0000
vn 0.9117 0.4109 -0.0000
vn -0.9991 0.0421 -0.0000
vn -0.9117 0.4109 -0.0000
vn -0.7895 0.4109 -0.4558
vn -0.8653 0.0421 -0.4996
vn -0.6797 0.7335 -0.0000
vn -0.3845 0.9231 -0.0000
vn -0.3330 0.9231 -0.1923
vn -0.5886 0.7335 -0.3398
vn -0.2669 -0.9637 -0.0000
vn -0.7120 -0.7022 -0.0000
vn -0.6166 -0.7022 -0.3560
vn -0.2311 -0.9637 -0.1334
vn -0.9498 -0.3128 -0.0000
vn -0.8226 -0.3128 -0.4749
vn -0.3560 -0.7022 -0.6166
vn -0.1334 -0.9637 -0.2311
vn -0.5028 0.0362 -0.8636
vn -0.4749 -0.3128 -0.8226
vn -0.3900 0.7326 -0.5579
vn -0.4839 0.3770 -0.7898
vn -0.2315 0.9266 -0.2963
vn -0.2978 0.6765 -0.6735
vn 0.6052 -0.0876 -0.7913
vn 0.5584 -0.0030 -0.8296
vn 0.5359 0.0342 -0.8436
vn 0.6805 0.6708 0.2949
vn 0.6511 0.6366 0.4132
vn 0.6954 0.6894 0.2029
vn 0.4749 0.1266 -0.8709
vn -0.2270 -0.7458 0.6263
vn -0.2081 -0.6199 0.7566
vn -0.2232 -0.7180 0.6593
vn 0.9990 0.0446 0.0014
vn 0.9409 0.3096 0.1376
vn 0.9818 0.1334 0.1355
vn 0.9645 -0.0873 -0.2491
vn 0.9898 -0.0941 -0.1072
vn 0.9970 -0.0693 0.0336
vn -0.2359 -0.8202 0.5211
vn 0.7059 0.7057 0.0611
vn -0.8328 -0.3198 -0.4518
vn -0.9713 0.1583 -0.1776
vn -0.8595 -0.1297 -0.4943
vn -0.9298 0.3098 -0.1988
vn -0.8904 0.4131 0.1910
vn -0.8406 0.3733 0.3924
vn -0.8952 -0.2237 -0.3854
vn -0.5781 -0.3112 0.7543
vn -0.5242 0.3808 0.7617
vn -0.7834 0.5694 -0.2493
vn -0.9655 0.1199 -0.2311
vn -0.5802 -0.5598 0.5916
vn -0.5255 0.2166 0.8228
vn -0.6806 0.7087 0.1859
vn -0.9862 0.0018 -0.1656
vn -0.5530 -0.0735 0.8299
vn -0.4561 0.6812 0.5726
vn -0.5653 0.8188 -0.1006
vn -0.0000 -0.3128 0.9498
vn 0.4749 -0.3128 0.8226
vn 0.5068 0.0290 0.8616
vn -0.0056 0.0250 0.9997
vn 0.0274 0.3608 0.9322
vn 0.4523 0.4184 0.7876
vn 0.3201 0.7383 0.5937
vn 0.1337 0.7392 0.6601
vn -0.0006 0.9461 0.3239
vn 0.1885 0.9192 0.3457
vn 0.1334 -0.9637 0.2311
vn -0.0000 -0.9637 0.2669
vn -0.0000 -0.7022 0.7120
vn 0.3560 -0.7022 0.6166
vn 0.2311 -0.9637 0.1334
vn 0.6166 -0.7022 0.3560
vn 0.8226 -0.3128 0.4749
vn 0.8653 0.0421 0.4996
vn 0.7895 0.4109 0.4558
vn 0.5886 0.7335 0.3398
vn 0.3330 0.9231 0.1923
vn -0.8653 0.0421 0.4996
vn -0.7895 0.4109 0.4558
vn -0.5886 0.7335 0.3398
vn -0.3330 0.9231 0.1923
vn -0.2311 -0.9637 0.1334
vn -0.6166 -0.7022 0.3560
vn -0.8226 -0.3128 0.4749
vn -0.1334 -0.9637 0.2311
vn -0.3560 -0.7022 0.6166
vn -0.4749 -0.3128 0.8226
vn -0.5028 0.0362 0.8636
vn -0.4839 0.3770 0.7898
vn -0.3900 0.7326 0.5579
vn -0.2315 0.9266 0.2963
vn -0.2978 0.6765 0.6735
vn 0.6052 -0.0876 0.7913
vn 0.5359 0.0342 0.8436
vn 0.5584 -0.0030 0.8296
vn 0.6805 0.6708 -0.2949
vn 0.6954 0.6894 -0.2029
vn 0.6511 0.6366 -0.4132
vn 0.4749 0.1266 0.8709
vn -0.2270 -0.7458 -0.6263
vn -0.2232 -0.7180 -0.6593
vn -0.2081 -0.6199 -0.7566
vn 0.9990 0.0446 -0.0014
vn 0.9818 0.1334 -0.1355
vn 0.9409 0.3096 -0.1376
vn 0.9645 -0.0873 0.2491
vn 0.9898 -0.0941 0.1072
vn 0.9970 -0.0693 -0.0336
vn -0.2359 -0.8202 -0.5211
vn 0.7059 0.7057 -0.0611
vn -0.8328 -0.3198 0.4518
vn -0.8595 -0.1297 0.4943
vn -0.9713 0.1583 0.1776
vn -0.9298 0.3098 0.1988
vn -0.8904 0.4131 -0.1910
vn -0.8406 0.3733 -0.3924
vn -0.8952 -0.2237 0.3854
vn -0.7834 0.5694 0.2493
vn -0.5242 0.3808 -0.7617
vn -0.5781 -0.3112 -0.7543
vn -0.9655 0.1199 0.2311
vn -0.6806 0.7087 -0.1859
vn -0.5255 0.2166 -0.8228
vn -0.5802 -0.5598 -0.5916
vn -0.9862 0.0018 0.1656
vn -0.5653 0.8188 0.1006
vn -0.4561 0.6812 -0.5726
vn -0.5530 -0.0735 -0.8299
vn 0.0758 -0.5512 -0.8309
vn 0.3408 0.7085 -0.6180
vn 0.9394 -0.0522 -0.3389
vn 0.9396 0.0390 -0.3399
vn 0.9136 -0.2800 -0.2948
vn 0.9394 -0.0522 0.3389
vn 0.9396 0.0390 0.3399
vn 0.9136 -0.2800 0.2948
vn -0.3640 0.7294 0.5792
vn -0.8028 0.1357 0.5806
vn -0.1614 0.9848 -0.0643
vn -0.2188 0.8929 0.3936
vn -0.1788 0.9557 -0.2340
vn -0.4998 -0.6659 0.5538
vn -0.3013 0.4690 -0.8302
vn -0.4038 -0.4913 0.7717
vn -0.8028 0.1357 -0.5806
vn -0.3674 -0.8540 0.3684
vn -0.3674 -0.8540 -0.3684
vn -0.1614 0.9848 0.0643
vn -0.4998 -0.6659 -0.5538
vn -0.5515 -0.5384 0.6371
vn -0.4038 -0.4913 -0.7717
vn -0.7412 0.1053 0.6630
vn -0.3168 0.8381 0.4440
vn -0.3013 0.4690 0.8302
vn -0.1788 0.9557 0.2340
vn -0.3640 0.7294 -0.5792
vn -0.2188 0.8929 -0.3936
vn -0.7412 0.1053 -0.6630
vn -0.0513 -0.2993 -0.9528
vn 0.6926 0.0674 -0.7182
vn 0.7620 -0.2470 -0.5986
vn -0.0172 -0.2992 -0.9540
vn -0.0443 -0.1500 -0.9877
vn 0.7648 -0.2333 -0.6005
vn -0.8114 -0.0900 -0.5775
vn -0.2365 0.0797 -0.9684
vn -0.7586 -0.3663 -0.5389
vn -0.3621 0.3227 0.8745
vn -0.9390 -0.0570 0.3390
vn -0.9490 0.0672 0.3081
vn -0.3392 0.1730 0.9247
vn -0.9653 -0.0927 0.2443
vn -0.8210 -0.1381 -0.5539
vn 0.4116 0.3479 -0.8423
vn -0.1115 -0.2803 -0.9534
vn -0.4147 -0.1234 -0.9016
vn -0.0278 0.5066 -0.8618
vn 0.8914 0.4532 0.0038
vn 0.4399 0.5565 0.7048
vn 0.5213 0.1157 0.8455
vn 0.9838 -0.0642 0.1676
vn -0.6967 -0.5950 -0.4007
vn -0.8027 -0.3387 -0.4909
vn -0.8411 -0.3095 0.4437
vn 0.2071 0.8095 0.5493
vn -0.3988 0.3282 0.8563
vn -0.1185 0.8878 0.4447
vn -0.5553 0.3117 0.7710
vn -0.8651 -0.3159 0.3896
vn -0.7914 -0.4916 -0.3632
vn 0.5414 0.8185 -0.1923
vn 0.1013 0.9534 -0.2843
vn 0.9505 -0.1988 0.2387
vn 0.4248 -0.1137 0.8981
vn -0.4288 -0.0907 0.8989
vn 0.6143 0.4301 -0.6615
vn 0.9472 0.1848 0.2621
vn -0.8022 -0.5466 0.2402
vn 0.4824 -0.1249 0.8670
vn 0.5939 -0.0041 0.8045
vn 0.7490 0.6604 0.0545
vn -0.2831 -0.4101 0.8670
vn 0.1413 0.6840 -0.7157
vn -0.4001 0.1448 -0.9050
vn -0.6936 -0.4383 -0.5717
vn -0.1508 -0.6086 0.7790
vn -0.6446 -0.7577 0.1021
vn -0.8037 0.5788 -0.1380
vt 0.718556 0.140532
vt 0.722354 0.189907
vt 0.649064 0.190546
vt 0.653148 0.141449
vt 0.722354 0.243082
vt 0.718556 0.368420
vt 0.624564 0.309198
vt 0.640897 0.243735
vt 0.382812 0.511719
vt 0.492188 0.503906
vt 0.382812 0.574219
vt 0.492188 0.500000
vt 0.359375 0.535156
vt 0.359375 0.464844
vt 0.714758 0.110146
vt 0.653148 0.108717
vt 0.604611 0.398806
vt 0.581822 0.364622
vt 0.710959 0.064569
vt 0.642593 0.068367
vt 0.394531 0.402344
vt 0.579531 0.137357
vt 0.579646 0.108717
vt 0.567396 0.231461
vt 0.575563 0.182363
vt 0.540043 0.349430
vt 0.559229 0.288741
vt 0.574226 0.064569
vt 0.429688 0.621094
vt 0.502139 0.341833
vt 0.502061 0.284649
vt 0.502061 0.104626
vt 0.502061 0.060770
vt 0.502061 0.182363
vt 0.502061 0.137357
vt 0.502061 0.227369
vt 0.496094 0.636719
vt 0.457031 0.367188
vt 0.976830 0.117743
vt 0.992022 0.189907
vt 0.900867 0.205100
vt 0.885674 0.148128
vt 0.988224 0.265870
vt 0.969234 0.341833
vt 0.927454 0.341833
vt 0.912261 0.269669
vt 0.897069 0.000000
vt 0.931252 0.034183
vt 0.859087 0.072165
vt 0.840096 0.034183
vt 0.950243 0.060770
vt 0.870482 0.102550
vt 0.488281 0.367188
vt 0.414062 0.394531
vt 0.527344 0.628906
vt 0.457031 0.628906
vt 0.790721 0.094954
vt 0.779326 0.053174
vt 0.805913 0.170917
vt 0.794519 0.125339
vt 0.847693 0.288659
vt 0.821106 0.227889
vt 0.371094 0.445312
vt 0.394531 0.593750
vt 0.885674 0.357026
vt 0.821106 0.300054
vt 0.870482 0.395007
vt 0.335938 0.570312
vt 0.234375 0.636719
vt 0.230469 0.625000
vt 0.308594 0.566406
vt 0.027344 0.542969
vt 0.093750 0.417969
vt 0.105469 0.433594
vt 0.039062 0.546875
vt 0.050781 0.636719
vt 0.062500 0.625000
vt 0.257812 0.417969
vt 0.230469 0.476562
vt 0.236983 0.470497
vt 0.324094 0.570674
vt 0.236983 0.636008
vt 0.097606 0.422586
vt 0.023562 0.548897
vt 0.049695 0.636008
vt 0.378906 0.863281
vt 0.210938 0.859375
vt 0.312500 0.781250
vt 0.179688 0.675781
vt 0.105469 0.734375
vt 0.054688 0.863281
vt 0.332031 0.929688
vt 0.285567 0.136733
vt 0.350975 0.141449
vt 0.350975 0.186455
vt 0.281769 0.186109
vt 0.281769 0.239283
vt 0.359142 0.239643
vt 0.375475 0.305107
vt 0.285567 0.360824
vt 0.605469 0.503906
vt 0.609375 0.566406
vt 0.585938 0.402344
vt 0.621094 0.464844
vt 0.289365 0.106348
vt 0.350975 0.108717
vt 0.414704 0.357026
vt 0.391915 0.391209
vt 0.296961 0.064569
vt 0.361530 0.068367
vt 0.527344 0.367188
vt 0.424476 0.108717
vt 0.424476 0.137357
vt 0.428560 0.182363
vt 0.432643 0.231461
vt 0.440810 0.288741
vt 0.456483 0.349430
vt 0.429896 0.064569
vt 0.562500 0.617188
vt 0.034889 0.113944
vt 0.122246 0.144330
vt 0.107054 0.201302
vt 0.019696 0.182311
vt 0.023494 0.258274
vt 0.095659 0.262072
vt 0.084265 0.334237
vt 0.042485 0.334237
vt 0.114650 0.000000
vt 0.167824 0.034183
vt 0.148833 0.072165
vt 0.080467 0.030385
vt 0.061476 0.060770
vt 0.137439 0.098752
vt 0.562500 0.386719
vt 0.585938 0.593750
vt 0.228594 0.053174
vt 0.217200 0.094954
vt 0.209604 0.121541
vt 0.202007 0.170917
vt 0.186815 0.224091
vt 0.160228 0.284861
vt 0.609375 0.437500
vt 0.621094 0.535156
vt 0.122246 0.349430
vt 0.186815 0.292457
vt 0.137439 0.383613
vt 0.722656 0.808594
vt 0.675781 0.828125
vt 0.664062 0.707031
vt 0.718750 0.710938
vt 0.734375 0.601562
vt 0.687500 0.601562
vt 0.773438 0.589844
vt 0.746094 0.496094
vt 0.777344 0.500000
vt 0.882812 0.808594
vt 0.832031 0.796875
vt 0.828125 0.699219
vt 0.878906 0.691406
vt 0.812500 0.582031
vt 0.773438 0.707031
vt 0.726562 0.929688
vt 0.753906 0.906250
vt 0.785156 0.949219
vt 0.773438 0.960938
vt 0.639235 0.845575
vt 0.929688 0.824219
vt 0.929688 0.687500
vt 0.625249 0.692543
vt 0.789062 0.890625
vt 0.777344 0.796875
vt 0.824219 0.890625
vt 0.890625 0.921875
vt 0.859375 0.902344
vt 0.843750 0.964844
vt 0.828125 0.953125
vt 0.816406 0.945312
vt 0.800781 0.945312
vt 0.679656 0.951380
vt 0.720832 0.984375
vt 0.656852 0.581644
vt 0.882812 0.578125
vt 0.847656 0.578125
vt 0.707031 0.500000
vt 0.673360 0.504249
vt 0.808594 0.503906
vt 0.863281 0.507812
vt 0.867188 0.445312
vt 0.674782 0.453125
vt 0.835938 0.507812
vt 0.707031 0.437500
vt 0.734375 0.417969
vt 0.769531 0.406250
vt 0.835938 0.429688
vt 0.804688 0.410156
vt 0.812500 0.976562
s 1
usemtl Material.001
f 50/1/1 49/2/2 5/3/3 6/4/4
f 48/5/5 47/6/6 3/7/7 4/8/8
f 46/9/9 23/10/10 2/11/11
f 45/12/12 51/13/13 8/14/14
f 1/15/15 50/1/1 6/4/4 7/16/16
f 49/2/2 48/5/5 4/8/8 5/3/3
f 47/6/6 46/17/9 2/18/11 3/7/7
f 51/19/13 1/15/15 7/16/16 8/20/14
f 45/12/12 8/14/14 15/21/17
f 7/16/16 6/4/4 13/22/18 14/23/19
f 5/3/3 4/8/8 11/24/20 12/25/21
f 3/7/7 2/18/11 9/26/22 10/27/23
f 8/20/14 7/16/16 14/23/19 15/28/17
f 6/4/4 5/3/3 12/25/21 13/22/18
f 4/8/8 3/7/7 10/27/23 11/24/20
f 2/11/11 23/10/10 9/29/22
f 10/27/23 9/26/22 16/30/24 17/31/25
f 15/28/17 14/23/19 21/32/26 22/33/27
f 13/22/18 12/25/21 19/34/28 20/35/29
f 11/24/20 10/27/23 17/31/25 18/36/30
f 9/29/22 23/10/10 16/37/24
f 45/12/12 15/21/17 22/38/27
f 14/23/19 13/22/18 20/35/29 21/32/26
f 12/25/21 11/24/20 18/36/30 19/34/28
f 27/39/31 26/40/32 33/41/33 34/42/34
f 25/43/35 24/44/36 31/45/37 32/46/38
f 30/47/39 29/48/40 36/49/41 37/50/42
f 28/51/43 27/39/31 34/42/34 35/52/44
f 26/40/32 25/43/35 32/46/38 33/41/33
f 24/53/36 23/10/10 31/54/37
f 45/12/12 30/55/39 37/56/42
f 29/48/40 28/51/43 35/52/44 36/49/41
f 37/50/42 36/49/41 43/57/45 44/58/46
f 35/52/44 34/42/34 41/59/47 42/60/48
f 33/41/33 32/46/38 39/61/49 40/62/50
f 31/54/37 23/10/10 38/63/51
f 45/12/12 37/56/42 44/64/46
f 36/49/41 35/52/44 42/60/48 43/57/45
f 34/42/34 33/41/33 40/62/50 41/59/47
f 32/46/38 31/45/37 38/65/51 39/61/49
f 40/62/50 39/61/49 47/66/52 48/5/5
f 38/63/51 23/10/10 46/9/9
f 45/12/12 44/64/46 51/13/13
f 43/57/45 42/60/48 50/1/1 1/15/15
f 41/59/47 40/62/50 48/5/5 49/2/2
f 39/61/49 38/65/51 46/67/9 47/66/52
f 44/58/46 43/57/45 1/15/15 51/19/13
f 42/60/48 41/59/47 49/2/2 50/1/1
f 48/68/53 54/69/54 60/70/55 57/71/53
f 52/72/56 46/73/57 55/74/57 58/75/58
f 54/69/54 53/76/59 59/77/59 60/70/55
f 47/78/60 48/68/61 57/71/61 56/79/62
f 56/80/63 57/81/64 60/82/65
f 55/83/66 56/80/63 58/84/67
f 59/85/68 56/80/63 60/82/65
f 58/84/67 56/80/63 59/85/68
f 46/73/69 47/78/60 56/79/62 55/74/69
f 53/76/70 52/72/56 58/75/58 59/77/70
f 48/86/71 47/87/72 54/88/73
f 54/88/73 47/87/72 53/89/74
f 53/89/74 47/87/72 52/90/75
f 46/91/76 52/90/75 47/87/72
f 61/92/77 63/92/78 64/92/79 62/92/80
f 65/92/81 67/92/82 68/92/83 66/92/84
f 69/92/85 71/92/86 72/92/87 70/92/88
f 106/93/89 78/94/90 77/95/91 105/96/92
f 104/97/93 76/98/94 75/99/95 103/100/96
f 102/101/97 74/102/98 23/10/10
f 45/12/12 80/103/99 107/104/100
f 73/105/101 79/106/102 78/94/90 106/93/89
f 105/96/92 77/95/91 76/98/94 104/97/93
f 103/100/96 75/99/95 74/107/98 102/108/97
f 107/109/100 80/110/99 79/106/102 73/105/101
f 45/12/12 87/111/103 80/103/99
f 79/106/102 86/112/104 85/113/105 78/94/90
f 77/95/91 84/114/106 83/115/107 76/98/94
f 75/99/95 82/116/108 81/117/109 74/107/98
f 80/110/99 87/118/103 86/112/104 79/106/102
f 78/94/90 85/113/105 84/114/106 77/95/91
f 76/98/94 83/115/107 82/116/108 75/99/95
f 74/102/98 81/119/109 23/10/10
f 82/116/108 17/31/25 16/30/24 81/117/109
f 87/118/103 22/33/27 21/32/26 86/112/104
f 85/113/105 20/35/29 19/34/28 84/114/106
f 83/115/107 18/36/30 17/31/25 82/116/108
f 81/119/109 16/37/24 23/10/10
f 45/12/12 22/38/27 87/111/103
f 86/112/104 21/32/26 20/35/29 85/113/105
f 84/114/106 19/34/28 18/36/30 83/115/107
f 27/120/31 91/121/110 90/122/111 26/123/32
f 25/124/35 89/125/112 88/126/113 24/127/36
f 30/128/39 94/129/114 93/130/115 29/131/40
f 28/132/43 92/133/116 91/121/110 27/120/31
f 26/123/32 90/122/111 89/125/112 25/124/35
f 24/53/36 88/134/113 23/10/10
f 45/12/12 94/135/114 30/55/39
f 29/131/40 93/130/115 92/133/116 28/132/43
f 94/129/114 101/136/117 100/137/118 93/130/115
f 92/133/116 99/138/119 98/139/120 91/121/110
f 90/122/111 97/140/121 96/141/122 89/125/112
f 88/134/113 95/142/123 23/10/10
f 45/12/12 101/143/117 94/135/114
f 93/130/115 100/137/118 99/138/119 92/133/116
f 91/121/110 98/139/120 97/140/121 90/122/111
f 89/125/112 96/141/122 95/144/123 88/126/113
f 97/140/121 104/97/93 103/145/124 96/141/122
f 95/142/123 102/101/97 23/10/10
f 45/12/12 107/104/100 101/143/117
f 100/137/118 73/105/101 106/93/89 99/138/119
f 98/139/120 105/96/92 104/97/93 97/140/121
f 96/141/122 103/145/124 102/146/97 95/144/123
f 101/136/117 107/109/100 73/105/101 100/137/118
f 99/138/119 106/93/89 105/96/92 98/139/120
f 104/68/125 113/71/125 116/70/126 110/69/127
f 108/72/128 114/75/129 111/74/130 102/73/130
f 110/69/127 116/70/126 115/77/131 109/76/131
f 103/78/132 112/79/133 113/71/134 104/68/134
f 112/80/135 116/82/136 113/81/137
f 111/83/138 114/84/139 112/80/135
f 115/85/140 116/82/136 112/80/135
f 114/84/139 115/85/140 112/80/135
f 102/73/141 111/74/141 112/79/133 103/78/132
f 109/76/142 115/77/142 114/75/129 108/72/128
f 104/86/143 110/88/144 103/87/145
f 110/88/144 109/89/146 103/87/145
f 109/89/146 108/90/147 103/87/145
f 102/91/148 103/87/145 108/90/147
f 117/92/149 118/92/150 120/92/151 119/92/152
f 121/92/153 122/92/154 124/92/155 123/92/156
f 125/92/157 126/92/158 128/92/159 127/92/160
f 129/92/161 130/92/162 132/92/163 131/92/163
f 133/92/164 134/92/164 136/92/164 135/92/164
f 137/92/165 138/92/165 140/92/165 139/92/165
f 141/92/166 143/92/166 144/92/166 142/92/166
f 145/92/167 147/92/167 148/92/167 146/92/167
f 149/92/168 151/92/168 152/92/168 150/92/168
f 62/92/80 64/92/79 132/92/169 130/92/162
f 122/92/154 121/92/153 145/92/170 146/92/171
f 70/92/88 72/92/87 140/92/172 138/92/173
f 64/92/79 63/92/78 131/92/174 132/92/169
f 124/92/155 122/92/154 146/92/171 148/92/175
f 72/92/87 71/92/86 139/92/176 140/92/172
f 67/92/82 65/92/81 133/92/177 135/92/178
f 123/92/156 124/92/155 148/92/175 147/92/179
f 65/92/81 66/92/84 134/92/180 133/92/177
f 117/92/149 119/92/152 143/92/181 141/92/182
f 125/92/157 127/92/160 151/92/183 149/92/184
f 118/92/150 117/92/149 141/92/182 142/92/185
f 66/92/84 68/92/83 136/92/186 134/92/180
f 126/92/158 125/92/157 149/92/184 150/92/187
f 120/92/151 118/92/150 142/92/185 144/92/188
f 68/92/83 67/92/82 135/92/178 136/92/186
f 63/92/78 61/92/77 129/92/161 131/92/174
f 128/92/159 126/92/158 150/92/187 152/92/189
f 119/92/152 120/92/151 144/92/188 143/92/181
f 71/92/86 69/92/85 137/92/190 139/92/176
f 61/92/77 62/92/80 130/92/162 129/92/161
f 127/92/160 128/92/159 152/92/189 151/92/183
f 121/92/153 123/92/156 147/92/179 145/92/170
f 69/92/85 70/92/88 138/92/173 137/92/190
f 182/147/191 181/148/192 174/149/193 175/150/194
f 168/151/195 175/150/194 174/149/193 167/152/196
f 173/153/197 168/151/195 161/154/198 166/155/199
f 185/156/200 186/157/201 179/158/202 178/159/203
f 172/160/204 179/158/202 180/161/205 173/153/197
f 188/162/206 189/163/207 196/164/208 195/165/209
f 182/147/191 189/163/207 188/162/206 181/148/192
f 183/166/210 184/167/211 177/168/212 176/169/213
f 194/170/214 189/163/207 182/147/191 187/171/215
f 186/157/201 193/172/216 194/170/214 187/171/215
f 180/161/205 187/171/215 182/147/191 175/150/194
f 184/167/211 191/173/217 192/174/218 185/156/200
f 192/174/218 191/173/217 198/175/219 199/176/220
f 185/156/200 192/174/218 193/172/216 186/157/201
f 194/170/214 193/172/216 200/177/221 201/178/222
f 190/179/223 188/162/206 195/165/209 197/180/224
f 169/181/225 176/169/213 177/168/212 170/182/226
f 194/170/214 201/178/222 196/164/208 189/163/207
f 171/183/227 178/159/203 179/158/202 172/160/204
f 160/184/228 167/152/196 169/181/225 162/185/229
f 177/168/212 184/167/211 185/156/200 178/159/203
f 174/149/193 176/169/213 169/181/225 167/152/196
f 170/182/226 177/168/212 178/159/203 171/183/227
f 165/186/230 172/160/204 173/153/197 166/155/199
f 163/187/231 156/188/232 155/189/233 162/185/229
f 186/157/201 187/171/215 180/161/205 179/158/202
f 163/187/231 170/182/226 171/183/227 164/190/234
f 169/181/225 170/182/226 163/187/231 162/185/229
f 180/161/205 175/150/194 168/151/195 173/153/197
f 171/183/227 172/160/204 165/186/230 164/190/234
f 162/185/229 155/189/233 154/191/235 160/184/228
f 161/154/198 153/192/236 159/193/237 166/155/199
f 164/190/234 157/194/238 156/188/232 163/187/231
f 166/155/199 159/193/237 158/195/239 165/186/230
f 167/152/196 160/184/228 161/154/198 168/151/195
f 165/186/230 158/195/239 157/194/238 164/190/234
f 174/149/193 181/148/192 183/166/210 176/169/213
f 153/192/236 161/154/198 160/184/228 154/191/235
f 190/179/223 191/173/217 184/167/211 183/166/210
f 190/179/223 197/180/224 198/175/219 191/173/217
f 188/162/206 190/179/223 183/166/210 181/148/192
f 192/174/218 199/176/220 200/177/221 193/172/216
f 195/165/209 196/164/208 202/196/240
f 196/164/208 201/178/222 202/196/240
f 201/178/222 200/177/221 202/196/240
f 200/177/221 199/176/220 202/196/240
f 199/176/220 198/175/219 202/196/240
f 198/175/219 197/180/224 202/196/240
f 197/180/224 195/165/209 202/196/240
o Untitled
v 0.000000 0.000000 0.000000
